<svg width="88" height="88" viewBox="0 0 88 88" fill="none" xmlns="http://www.w3.org/2000/svg">
<path d="M56.8333 51.3333H53.9367L52.91 50.3433C56.6278 46.0316 58.671 40.5266 58.6667 34.8333C58.6667 28.5123 56.1557 22.4502 51.686 17.9806C47.2164 13.511 41.1543 11 34.8333 11C22.2933 11 12.0267 20.68 11.11 33H18.5167C19.4333 24.75 26.3267 18.3333 34.8333 18.3333C43.9633 18.3333 51.3333 25.7033 51.3333 34.8333C51.3333 43.9633 43.9633 51.3333 34.8333 51.3333C34.21 51.3333 33.6233 51.2233 33 51.15V58.5567C33.6233 58.63 34.21 58.6667 34.8333 58.6667C40.7367 58.6667 46.1633 56.5033 50.3433 52.91L51.3333 53.9367V56.8333L69.6667 75.13L75.13 69.6667L56.8333 51.3333Z" fill="#AFCDD1"/>
<path d="M23.7233 39.6733L14.6667 48.73L5.60999 39.6733L3.00665 42.2767L12.0633 51.3333L3.00665 60.39L5.60999 62.9933L14.6667 53.9367L23.7233 62.9933L26.3267 60.39L17.27 51.3333L26.3267 42.2767L23.7233 39.6733Z" fill="#AFCDD1"/>
</svg>
